<?xml version="1.0" encoding="UTF-8" standalone="no"?>
<!-- Generator: Adobe Illustrator 21.1.0, SVG Export Plug-In . SVG Version: 6.00 Build 0)  -->

<svg
   version="1.1"
   id="Layer_1"
   x="0px"
   y="0px"
   viewBox="0 0 79.600021 79.600023"
   xml:space="preserve"
   sodipodi:docname="ceir_logo_icon.svg"
   inkscape:version="1.1.2 (b8e25be833, 2022-02-05)"
   width="79.600021"
   height="79.600021"
   xmlns:inkscape="http://www.inkscape.org/namespaces/inkscape"
   xmlns:sodipodi="http://sodipodi.sourceforge.net/DTD/sodipodi-0.dtd"
   xmlns="http://www.w3.org/2000/svg"
   xmlns:svg="http://www.w3.org/2000/svg"><defs
   id="defs23" /><sodipodi:namedview
   id="namedview21"
   pagecolor="#ffffff"
   bordercolor="#666666"
   borderopacity="1.0"
   inkscape:pageshadow="2"
   inkscape:pageopacity="0.0"
   inkscape:pagecheckerboard="0"
   showgrid="false"
   inkscape:zoom="10.934625"
   inkscape:cx="66.34887"
   inkscape:cy="27.252878"
   inkscape:window-width="1920"
   inkscape:window-height="1009"
   inkscape:window-x="-8"
   inkscape:window-y="-8"
   inkscape:window-maximized="1"
   inkscape:current-layer="Layer_1"
   fit-margin-top="1e-05"
   lock-margins="true"
   fit-margin-left="1e-05"
   fit-margin-right="1e-05"
   fit-margin-bottom="1e-05" />
<style
   type="text/css"
   id="style2">
	.st0{fill:#FFFFFF;}
	.st1{fill-rule:evenodd;clip-rule:evenodd;fill:#C8382E;}
	.st2{fill-rule:evenodd;clip-rule:evenodd;fill:#FFFFFF;}
</style>





<path
   class="st1"
   d="m 60.00001,59.80001 c -5.2,5.2 -12.3,8.4 -20.2,8.4 -3.1,0 -5.7,2.5 -5.7,5.7 0,3.2 2.5,5.7 5.7,5.7 22,0 39.8,-17.8 39.8,-39.8 0,-22 -17.8,-39.8 -39.8,-39.8 -3.1,0 -5.7,2.5 -5.7,5.7 0,3.2 2.5,5.7 5.7,5.7 7.9,0 15.1,3.2 20.2,8.4 2.1,2.2 2.1,5.8 -0.1,7.9 -2.2,2.2 -5.8,2.2 -8,0 -3.1,-3.1 -7.4,-5 -12.1,-5 -9.4,0 -17.1,7.6 -17.1,17.1 0,9.4 7.6,17.1 17.1,17.1 4.7,0 9,-1.9 12.1,-5 2.2,-2.2 5.8,-2.2 8,0 2.2,2.2 2.3,5.7 0.1,7.9"
   id="path14" />
<path
   class="st1"
   d="m 19.70001,59.90001 c -5.1,-5.1 -8.3,-12.3 -8.3,-20.1 0,-7.9 3.2,-15 8.3,-20.1 2.2,-2.2 2.2,-5.8 0,-8 -2.2,-2.2 -5.8,-2.2 -8,0 -7.2,7.2 -11.7,17.1 -11.7,28.1 0,11 4.5,21 11.7,28.2 2.2,2.2 5.8,2.2 8,0 2.2,-2.2 2.2,-5.8 0,-8.1"
   id="path16" />

</svg>
