<?xml version="1.0" encoding="UTF-8" standalone="no"?>
<!-- Created with Inkscape (http://www.inkscape.org/) -->

<svg
   version="1.1"
   id="svg2"
   width="1268.2461"
   height="393.84531"
   viewBox="0 0 1268.2461 393.84531"
   sodipodi:docname="input.eps"
   inkscape:export-filename="..\Users\marti\Desktop\input.eps.svg"
   inkscape:export-xdpi="50"
   inkscape:export-ydpi="50"
   xmlns:inkscape="http://www.inkscape.org/namespaces/inkscape"
   xmlns:sodipodi="http://sodipodi.sourceforge.net/DTD/sodipodi-0.dtd"
   xmlns="http://www.w3.org/2000/svg"
   xmlns:svg="http://www.w3.org/2000/svg">
  <defs
     id="defs6" />
  <sodipodi:namedview
     id="namedview4"
     pagecolor="#ffffff"
     bordercolor="#666666"
     borderopacity="1.0"
     inkscape:showpageshadow="2"
     inkscape:pageopacity="0.0"
     inkscape:pagecheckerboard="0"
     inkscape:deskcolor="#d1d1d1"
     showgrid="false" />
  <g
     id="g10"
     inkscape:groupmode="layer"
     inkscape:label="Page 1"
     transform="matrix(1.3333333,0,0,-1.3333333,-5.208333e-4,393.84532)">
    <g
       id="g12"
       transform="scale(0.1)">
      <path
         d="m 234.934,139.48 v 38.762 c -25.313,-10.371 -50.012,-15.551 -74.09,-15.551 -28.129,0 -49.352,9.489 -63.6838,28.469 -14.3321,18.988 -21.4883,46.231 -21.4883,81.738 0,74.883 29.3591,112.332 88.0701,112.332 8.789,0 18.887,-1.269 30.317,-3.82 11.433,-2.558 21.972,-5.762 31.64,-9.64 l 13.453,37.191 c -7.91,4.027 -18.812,7.551 -32.699,10.539 -13.883,2.988 -27.769,4.492 -41.66,4.492 -43.07,0 -76.2422,-13.191 -99.5313,-39.562 -23.3008,-26.36 -34.9414,-63.719 -34.9414,-112.059 0,-47.109 11.4688,-83.539 34.4141,-109.281 22.9375,-25.75 55.3286,-38.641 97.1566,-38.641 29.363,0 53.703,5.012 73.043,15.031 m 268.761,244.161 c -23.824,26.89 -55.941,40.351 -96.375,40.351 -41.84,0 -74.531,-13.152 -98.09,-39.433 -23.55,-26.278 -35.328,-62.969 -35.328,-110.079 0,-30.41 5.45,-56.949 16.352,-79.628 10.894,-22.672 26.371,-40.071 46.398,-52.204 20.039,-12.128 42.981,-18.199 68.821,-18.199 41.84,0 74.617,13.242 98.347,39.68 23.731,26.473 35.602,63.242 35.602,110.351 0,45.879 -11.91,82.27 -35.727,109.161 M 341.141,358.602 c 14.589,18.796 36.211,28.207 64.863,28.207 29,0 50.926,-9.528 65.785,-28.61 14.856,-19.078 22.281,-46.98 22.281,-83.719 0,-37.089 -7.425,-65.261 -22.281,-84.511 -14.859,-19.239 -36.605,-28.867 -65.258,-28.867 -28.656,0 -50.359,9.668 -65.129,29 -14.757,19.339 -22.152,47.468 -22.152,84.378 0,37.258 7.289,65.309 21.891,84.122 M 844.172,129.73 v 188.52 c 0,36.922 -8.789,63.762 -26.371,80.551 -17.578,16.801 -43.77,25.191 -78.571,25.191 -19.867,0 -37.878,-3.922 -54.046,-11.73 -16.18,-7.832 -28.743,-18.864 -37.711,-33.102 h -2.11 l -7.125,39.551 H 602.652 V 129.73 h 43.774 v 151.61 c 0,37.621 7.015,64.601 21.086,80.949 14.058,16.34 36.211,24.52 66.453,24.52 22.84,0 39.629,-5.797 50.359,-17.399 10.719,-11.609 16.078,-29.18 16.078,-52.738 V 129.73 Z m 135.738,44.821 c -8.265,9.308 -12.387,22.679 -12.387,40.078 v 170.062 h 83.837 v 34.02 h -83.837 v 66.969 h -25.324 l -18.445,-61.688 -41.402,-18.203 v -21.098 h 41.402 v -171.91 c 0,-58.883 27.949,-88.332 83.836,-88.332 7.39,0 15.69,0.762 24.92,2.242 9.23,1.5 16.22,3.379 20.96,5.668 v 33.493 c -4.22,-1.231 -9.93,-2.422 -17.14,-3.551 -7.21,-1.16 -14.67,-1.719 -22.41,-1.719 -14.404,0 -25.748,4.656 -34.01,13.969 m 161.58,244.16 h -43.77 V 129.742 h 43.77 z M 1101.41,475 c 4.92,-4.82 11.07,-7.238 18.46,-7.238 7.02,0 13.09,2.418 18.19,7.238 5.1,4.852 7.65,12.172 7.65,22.02 0,9.851 -2.55,17.14 -7.65,21.89 -5.1,4.738 -11.17,7.121 -18.19,7.121 -7.39,0 -13.54,-2.34 -18.46,-6.992 -4.92,-4.648 -7.38,-12 -7.38,-22.019 0,-9.848 2.46,-17.168 7.38,-22.02 m 360.91,-345.27 v 188.52 c 0,36.922 -8.79,63.762 -26.36,80.551 -17.58,16.801 -43.77,25.191 -78.58,25.191 -19.86,0 -37.88,-3.922 -54.05,-11.73 -16.18,-7.832 -28.74,-18.864 -37.71,-33.102 h -2.11 l -7.12,39.551 H 1220.8 V 129.73 h 43.77 v 151.61 c 0,37.621 7.03,64.601 21.09,80.949 14.06,16.34 36.21,24.52 66.45,24.52 22.85,0 39.64,-5.797 50.36,-17.399 10.72,-11.609 16.08,-29.18 16.08,-52.738 V 129.73 Z m 73.25,288.981 V 229.66 c 0,-36.75 8.74,-63.461 26.24,-80.16 17.48,-16.699 43.81,-25.051 78.97,-25.051 20.38,0 38.53,3.781 54.44,11.34 15.91,7.551 28.35,18.461 37.31,32.703 h 2.38 l 6.32,-38.762 h 36.13 v 288.981 h -43.77 V 266.84 c 0,-37.442 -6.99,-64.43 -20.96,-80.949 -13.98,-16.52 -36.09,-24.789 -66.32,-24.789 -22.85,0 -39.64,5.808 -50.36,17.41 -10.72,11.59 -16.08,29.179 -16.08,52.726 v 187.473 z m 493.15,-289.91 c 13.79,2.898 28.43,7.699 43.9,14.379 v 39.011 c -30.42,-13.011 -61.17,-19.5 -92.29,-19.5 -29.53,0 -52.43,8.789 -68.68,26.36 -16.27,17.578 -24.83,43.328 -25.71,77.258 h 199.07 V 294 c 0,39.02 -10.55,70.43 -31.64,94.25 -21.09,23.82 -49.75,35.742 -85.96,35.742 -38.67,0 -69.48,-13.722 -92.41,-41.14 -22.94,-27.422 -34.41,-64.43 -34.41,-111 0,-46.231 12.34,-82.36 37.04,-108.372 24.7,-26.019 58.41,-39.031 101.12,-39.031 19.51,0 36.16,1.449 49.97,4.352 m -9.1,236.508 c 12.3,-14.661 18.46,-35.809 18.46,-63.399 h -151.09 c 2.46,26.711 10.59,47.629 24.39,62.75 13.8,15.121 32.3,22.68 55.51,22.68 22.84,0 40.42,-7.352 52.73,-22.031 M 2475.4,129.73 H 2511 V 540 h -43.77 V 422.398 l 1.05,-20.296 1.85,-20.832 h -3.43 c -20.92,28.48 -50.98,42.722 -90.17,42.722 -37.62,0 -66.98,-13.191 -88.07,-39.562 -21.09,-26.36 -31.64,-63.36 -31.64,-111 0,-47.641 10.5,-84.379 31.51,-110.219 21,-25.84 50.4,-38.762 88.2,-38.762 40.25,0 70.48,14.68 90.7,44.043 h 2.37 z m -152.93,59.59 c -13.53,18.809 -20.3,46.672 -20.3,83.578 0,36.383 6.81,64.551 20.43,84.5 13.63,19.954 33.27,29.942 58.94,29.942 29.88,0 51.63,-8.738 65.25,-26.238 13.62,-17.5 20.44,-46.711 20.44,-87.672 v -9.231 c 0,-36.219 -6.72,-62.449 -20.17,-78.711 -13.45,-16.258 -35.12,-24.386 -65,-24.386 -26.19,0 -46.05,9.398 -59.59,28.218 m 311.61,229.391 h -43.77 V 129.742 h 43.77 z M 2594,475 c 4.92,-4.82 11.08,-7.238 18.46,-7.238 7.03,0 13.09,2.418 18.19,7.238 5.1,4.852 7.65,12.172 7.65,22.02 0,9.851 -2.55,17.14 -7.65,21.89 -5.1,4.738 -11.16,7.121 -18.19,7.121 -7.38,0 -13.54,-2.34 -18.46,-6.992 -4.92,-4.648 -7.38,-12 -7.38,-22.019 0,-9.848 2.46,-17.168 7.38,-22.02 m 287.75,-218.711 c -12.05,12.66 -35.2,25.223 -69.48,37.711 -24.96,9.309 -41.84,16.43 -50.63,21.352 -8.79,4.918 -15.16,10.109 -19.11,15.558 -3.96,5.442 -5.93,12.031 -5.93,19.77 0,11.429 5.27,20.402 15.82,26.902 10.54,6.5 26.19,9.758 46.93,9.758 23.55,0 49.83,-5.988 78.84,-17.93 l 15.55,35.59 c -29.7,12.66 -60.11,18.992 -91.23,18.992 -33.4,0 -59.68,-6.82 -78.83,-20.433 -19.17,-13.637 -28.74,-32.227 -28.74,-55.778 0,-13.179 2.76,-24.519 8.3,-34.011 5.54,-9.5 13.98,-17.981 25.31,-25.45 11.34,-7.468 30.46,-16.211 57.35,-26.23 28.3,-10.899 47.33,-20.352 57.09,-28.352 9.75,-7.996 14.63,-17.617 14.63,-28.867 0,-14.941 -6.15,-26.062 -18.46,-33.351 -12.3,-7.301 -29.88,-10.938 -52.73,-10.938 -14.77,0 -30.1,2.008 -46.01,6.059 -15.91,4.039 -30.81,9.578 -44.69,16.609 v -40.602 c 21.44,-12.128 51.32,-18.199 89.65,-18.199 36.2,0 64.33,7.289 84.37,21.891 20.04,14.582 30.06,35.332 30.06,62.23 0,19.16 -6.02,35.059 -18.06,47.719 M 3146.03,139.48 v 38.762 c -25.32,-10.371 -50.02,-15.551 -74.1,-15.551 -28.12,0 -49.35,9.489 -63.67,28.469 -14.33,18.988 -21.49,46.231 -21.49,81.738 0,74.883 29.35,112.332 88.06,112.332 8.79,0 18.9,-1.269 30.33,-3.82 11.42,-2.558 21.97,-5.762 31.64,-9.64 l 13.44,37.191 c -7.91,4.027 -18.81,7.551 -32.69,10.539 -13.89,2.988 -27.78,4.492 -41.66,4.492 -43.07,0 -76.25,-13.191 -99.54,-39.562 -23.29,-26.36 -34.93,-63.719 -34.93,-112.059 0,-47.109 11.47,-83.539 34.41,-109.281 22.93,-25.75 55.32,-38.641 97.16,-38.641 29.35,0 53.7,5.012 73.04,15.031 m 268.76,244.161 c -23.82,26.89 -55.95,40.351 -96.38,40.351 -41.83,0 -74.53,-13.152 -98.08,-39.433 C 3196.77,358.281 3185,321.59 3185,274.48 c 0,-30.41 5.44,-56.949 16.34,-79.628 10.9,-22.672 26.37,-40.071 46.41,-52.204 20.04,-12.128 42.98,-18.199 68.82,-18.199 41.83,0 74.62,13.242 98.35,39.68 23.73,26.473 35.59,63.242 35.59,110.351 0,45.879 -11.91,82.27 -35.72,109.161 m -162.56,-25.039 c 14.59,18.796 36.21,28.207 64.87,28.207 29,0 50.93,-9.528 65.78,-28.61 14.85,-19.078 22.28,-46.98 22.28,-83.719 0,-37.089 -7.43,-65.261 -22.28,-84.511 -14.85,-19.239 -36.61,-28.867 -65.26,-28.867 -28.65,0 -50.36,9.668 -65.12,29 -14.77,19.339 -22.15,47.468 -22.15,84.378 0,37.258 7.29,65.309 21.88,84.122 m 375.95,-228.872 109.68,288.981 h -46.93 C 3655.07,320.27 3632,256.43 3621.72,227.148 c -10.29,-29.269 -16.4,-48.546 -18.33,-57.878 h -2.11 c -2.46,11.96 -10.72,37.98 -24.78,78.062 l -62.23,171.379 h -46.93 L 3577.02,129.73 Z m 314.64,-0.929 c 13.79,2.898 28.43,7.699 43.9,14.379 v 39.011 c -30.42,-13.011 -61.17,-19.5 -92.29,-19.5 -29.53,0 -52.43,8.789 -68.68,26.36 -16.27,17.578 -24.83,43.328 -25.71,77.258 h 199.07 V 294 c 0,39.02 -10.55,70.43 -31.64,94.25 -21.09,23.82 -49.75,35.742 -85.96,35.742 -38.67,0 -69.48,-13.722 -92.41,-41.14 -22.94,-27.422 -34.41,-64.43 -34.41,-111 0,-46.231 12.34,-82.36 37.04,-108.372 24.7,-26.019 58.41,-39.031 101.12,-39.031 19.51,0 36.16,1.449 49.97,4.352 m -9.1,236.508 c 12.3,-14.661 18.46,-35.809 18.46,-63.399 h -151.09 c 2.46,26.711 10.59,47.629 24.39,62.75 13.8,15.121 32.3,22.68 55.5,22.68 22.85,0 40.43,-7.352 52.74,-22.031 m 208.51,43.382 C 4127.11,398.5 4114.19,384 4103.47,365.191 h -2.11 l -5.01,53.52 h -36.12 V 129.73 H 4104 v 155.04 c 0,28.3 8.3,51.941 24.92,70.921 16.61,18.989 36.6,28.481 59.98,28.481 9.14,0 19.69,-1.32 31.64,-3.953 l 6.07,40.601 c -10.2,2.11 -21.72,3.172 -34.55,3.172 -18.1,0 -34.71,-5.113 -49.83,-15.301 m 168.7,10.02 h -43.77 V 129.742 h 43.77 z M 4270.85,475 c 4.92,-4.82 11.07,-7.238 18.46,-7.238 7.03,0 13.09,2.418 18.19,7.238 5.1,4.852 7.65,12.172 7.65,22.02 0,9.851 -2.55,17.14 -7.65,21.89 -5.1,4.738 -11.16,7.121 -18.19,7.121 -7.39,0 -13.54,-2.34 -18.46,-6.992 -4.92,-4.648 -7.38,-12 -7.38,-22.019 0,-9.848 2.46,-17.168 7.38,-22.02 m 360.91,-345.27 v 188.52 c 0,36.922 -8.79,63.762 -26.36,80.551 -17.58,16.801 -43.77,25.191 -78.58,25.191 -19.86,0 -37.88,-3.922 -54.05,-11.73 -16.17,-7.832 -28.74,-18.864 -37.71,-33.102 h -2.1 l -7.12,39.551 h -35.6 V 129.73 h 43.77 v 151.61 c 0,37.621 7.03,64.601 21.09,80.949 14.07,16.34 36.21,24.52 66.45,24.52 22.85,0 39.64,-5.797 50.36,-17.399 10.72,-11.609 16.08,-29.18 16.08,-52.738 V 129.73 Z m 213,288.981 c -12.13,3.519 -25.75,5.281 -40.87,5.281 -34.81,0 -61.7,-8.582 -80.68,-25.722 -18.99,-17.129 -28.48,-41.52 -28.48,-73.168 0,-18.981 4.7,-35.852 14.11,-50.622 9.4,-14.769 21.57,-25.23 36.51,-31.371 -12.13,-7.39 -21,-15.027 -26.63,-22.937 -5.62,-7.91 -8.43,-17.152 -8.43,-27.692 0,-9.308 2.5,-17.492 7.51,-24.519 5.01,-7.039 11.21,-12.219 18.59,-15.563 -20.39,-4.566 -36.21,-13.269 -47.46,-26.097 -11.25,-12.821 -16.88,-28.0393 -16.88,-45.6213 0,-25.6602 10.24,-45.5078 30.72,-59.5781 C 4723.25,7.03125 4752.38,0 4790.18,0 c 49.21,0 86.66,8.39063 112.32,25.1914 25.67,16.7774 38.5,41.168 38.5,73.1602 0,25.1484 -8.4,44.2964 -25.18,57.4804 -16.78,13.18 -40.83,19.777 -72.12,19.777 h -51.15 c -15.82,0 -26.98,1.879 -33.49,5.661 -6.5,3.781 -9.75,9.628 -9.75,17.539 0,14.929 9.31,27.332 27.95,37.183 7.55,-1.422 15.64,-2.121 24.27,-2.121 33.75,0 60.28,8.449 79.62,25.32 19.33,16.879 29,39.457 29,67.758 0,12.481 -1.93,23.699 -5.8,33.633 -3.87,9.918 -8.26,17.969 -13.19,24.109 l 53.53,6.34 v 27.68 z M 4730.85,122.082 c 11.08,9.488 26.54,14.238 46.41,14.238 h 52.47 c 26.72,0 44.91,-3.039 54.58,-9.09 9.66,-6.082 14.5,-16.929 14.5,-32.5698 0,-18.8086 -8.83,-33.711 -26.5,-44.6993 -17.66,-10.9726 -44.87,-16.4687 -81.59,-16.4687 -24.63,0 -43.52,4.0391 -56.7,12.1289 -13.19,8.0781 -19.78,19.9609 -19.78,35.5898 0,17.7696 5.54,31.3791 16.61,40.8711 m 23.73,253.387 c 11.08,11.07 26.9,16.613 47.46,16.613 43.26,0 64.88,-21.711 64.88,-65.133 0,-41.488 -21.37,-62.219 -64.09,-62.219 -20.39,0 -36.3,5.18 -47.72,15.551 -11.43,10.379 -17.14,25.66 -17.14,45.879 0,21.789 5.54,38.238 16.61,49.309"
         style="fill:#c81f32;fill-opacity:1;fill-rule:nonzero;stroke:none"
         id="path14" />
      <path
         d="m 1097.68,1453.46 c -2.41,-86.96 -20.83,-181.01 -96.76,-235.25 -59.857,-39.91 -133.018,-39.91 -149.639,-39.91 -252.718,0 -242.75,222.8 -246.066,292.63 v 877.89 H 0.00390625 v -867.91 c 0,-129.69 0,-276 53.20699375,-399.03 C 83.1328,1008.71 133.012,942.219 192.875,889.012 369.113,729.398 601.883,692.809 828,692.809 c 219.47,0 492.15,36.589 668.39,189.543 56.53,46.57 159.61,166.268 196.19,359.138 5.14,35.99 7.71,76.33 9.01,109.32 l 556.62,-606.74 h 754.84 l -781.44,811.38 718.26,794.75 h -738.22 l -508.75,-638.45 -0.02,1242.09 h -605.2"
         style="fill:#c81f32;fill-opacity:1;fill-rule:nonzero;stroke:none"
         id="path16" />
      <path
         d="m 3761.22,1357.07 c -131.34,-1.2 -266.31,-51.75 -325.37,-179.32 -26.51,-57.77 -28.93,-117.95 -28.93,-138.41 0,-139.61 75.93,-210.621 121.73,-243.11 89.17,-61.378 190.4,-58.968 224.14,-58.968 78.34,0 149.43,9.629 218.12,50.547 49.41,30.082 138.58,102.293 138.58,252.731 0,137.21 -72.3,250.34 -204.86,296.07 -25.31,8.42 -75.93,20.46 -143.41,20.46 m 1.21,-184.14 c 73.52,0 103.63,-50.56 112.07,-75.82 8.43,-21.66 8.43,-39.72 8.43,-49.35 0,-54.158 -22.89,-99.889 -74.7,-120.35 -15.67,-4.808 -31.34,-8.422 -48.22,-8.422 -75.92,0 -124.11,51.75 -124.11,126.372 0,77.01 49.41,127.57 126.53,127.57 m 813.42,475.39 c -28.91,10.83 -57.83,24.07 -122.92,24.07 -40.96,0 -63.86,-4.81 -81.94,-10.83 -13.26,-4.81 -47,-16.85 -77.12,-46.94 -54.24,-54.15 -61.46,-125.16 -63.88,-148.03 -2.4,-16.85 -2.4,-33.7 -3.61,-50.55 v -78.23 h -95.2 v -146.83 h 95.2 V 756.512 h 219.33 v 434.468 h 121.71 v 146.83 h -120.51 v 67.4 c 0,13.24 -2.41,86.65 66.29,87.86 26.5,0 39.76,-7.22 62.65,-19.26 z m 572.4,-541.58 v 550.01 H 4928.93 V 756.512 h 219.32 V 975.551 L 5349.5,756.512 h 273.55 l -283.18,293.658 260.29,287.64 h -267.53 z m 824.28,250.33 c -131.35,-1.2 -266.32,-51.75 -325.37,-179.32 -26.5,-57.77 -28.92,-117.95 -28.92,-138.41 0,-139.61 75.92,-210.621 121.71,-243.11 89.18,-61.378 190.4,-58.968 224.15,-58.968 78.33,0 149.44,9.629 218.12,50.547 49.41,30.082 138.58,102.293 138.58,252.731 0,137.21 -72.29,250.34 -204.86,296.07 -25.3,8.42 -75.92,20.46 -143.41,20.46 m 1.21,-184.14 c 73.52,0 103.65,-50.56 112.07,-75.82 8.44,-21.66 8.44,-39.72 8.44,-49.35 0,-54.158 -22.9,-99.889 -74.72,-120.35 -15.67,-4.808 -31.32,-8.422 -48.2,-8.422 -75.92,0 -124.13,51.75 -124.13,126.372 0,77.01 49.41,127.57 126.54,127.57 m 437.44,483.82 V 756.512 h 210.89 l -3.62,60.179 c 31.35,-31.293 80.74,-78.23 185.6,-78.23 131.34,0 198.83,78.23 226.55,119.148 51.81,78.231 53.03,160.071 53.03,192.561 1.2,167.29 -94.01,304.49 -273.57,304.49 -81.93,1.21 -132.56,-26.48 -159.07,-45.73 -12.04,-8.43 -22.89,-18.05 -33.73,-27.68 l -1.21,375.5 z m 325.38,-489.84 c 16.86,0 78.33,-1.21 106.04,-54.15 13.26,-25.28 14.46,-52.96 14.46,-61.38 0,-32.5 -15.67,-127.579 -122.92,-127.579 -66.28,0 -95.19,34.898 -108.45,58.969 -14.47,26.48 -15.67,52.96 -15.67,63.79 0,75.81 54.23,119.14 126.54,120.35 m 441.05,-410.398 h 220.54 v 899.028 h -220.54 z m 977.31,239.5 c 0,80.638 -7.22,121.558 -19.27,158.858 -7.24,21.66 -27.73,73.42 -75.93,119.15 -86.77,81.85 -194.01,83.05 -233.79,83.05 -145.81,0 -226.54,-63.79 -266.32,-108.32 -50.6,-58.97 -67.48,-127.57 -67.48,-204.6 -1.21,-187.74 112.07,-259.959 183.18,-285.228 62.65,-21.66 127.73,-21.66 148.22,-21.66 180.76,0 267.53,87.847 303.68,154.047 6.02,10.832 12.05,21.66 20.49,45.73 h -232.59 c -10.84,-20.457 -33.74,-51.758 -91.58,-51.758 -95.21,0 -114.48,81.848 -119.31,109.528 z m -445.87,126.358 c 7.22,14.46 9.63,19.27 14.46,27.69 30.13,49.35 79.53,54.16 98.82,54.16 38.55,0 75.91,-15.64 97.6,-49.35 7.23,-12.03 9.64,-19.25 14.47,-32.5 z m 1144.81,15.66 c -1.21,48.14 -3.61,66.19 -10.85,90.26 -14.45,48.14 -59.04,126.37 -185.58,126.37 -114.48,1.21 -171.12,-58.98 -203.66,-91.47 l 3.63,74.62 H 8232.03 V 756.512 h 221.74 v 294.868 c 0,12.03 -1.21,74.61 43.38,104.7 19.3,13.24 40.99,13.24 48.21,13.24 24.11,0 39.76,-7.22 48.21,-12.03 36.14,-25.28 37.35,-67.4 37.35,-105.91 V 756.512 h 222.94 z m 110.87,199.78 V 1162.1 H 9170.8 L 8898.45,756.512 h 594.1 v 172.097 h -255.47 l 274.77,409.201 h -547.12"
         style="fill:#231f20;fill-opacity:1;fill-rule:nonzero;stroke:none"
         id="path18" />
      <path
         d="m 3435.85,2342.2 v -314.12 c 0,-46.94 0,-99.89 19.28,-144.42 10.85,-26.48 28.92,-50.55 50.62,-69.81 63.86,-57.76 148.22,-71 230.17,-71 79.53,0 178.35,13.24 242.22,68.6 20.48,16.85 57.84,60.17 71.1,129.98 3.61,25.27 4.82,56.56 4.82,62.58 v 338.19 h -220.53 v -303.29 c 1.2,-36.1 -1.21,-81.84 -34.95,-105.91 -21.69,-14.44 -48.2,-14.44 -54.23,-14.44 -91.58,0 -87.97,80.64 -89.17,105.91 v 317.73 z m 1359.34,-199.78 c -1.21,48.14 -3.61,66.19 -10.85,90.26 -14.46,48.14 -59.05,126.37 -185.58,126.37 -114.49,1.2 -171.13,-58.97 -203.66,-91.47 l 3.61,74.62 h -225.35 v -581.3 h 221.74 v 294.86 c 0,12.04 -1.21,74.62 43.38,104.71 19.28,13.24 40.97,13.24 48.2,13.24 24.11,0 39.77,-7.22 48.21,-12.04 36.15,-25.27 37.35,-67.4 37.35,-105.91 V 1760.9 h 222.95 z m 342.24,199.78 H 4916.9 v -581.3 h 220.53 z M 4941,2432.46 c 31.33,-30.08 69.9,-34.9 84.36,-34.9 63.87,0 118.1,52.96 118.1,117.95 0,64.99 -53.03,117.94 -118.1,117.94 -65.07,0 -118.1,-51.75 -118.1,-116.74 0,-44.53 22.9,-73.41 33.74,-84.25 m 239.8,-90.26 278.38,-581.3 h 169.92 l 273.55,581.3 h -231.38 l -125.33,-297.27 -132.55,297.27 z m 1377.42,-341.8 c 0,80.64 -7.24,121.56 -19.29,158.86 -7.23,21.67 -27.72,73.42 -75.92,119.15 -86.77,81.84 -194.02,83.05 -233.79,83.05 -145.81,0 -226.55,-63.79 -266.32,-108.32 -50.61,-58.97 -67.48,-127.57 -67.48,-204.6 -1.21,-187.75 112.07,-259.96 183.17,-285.23 62.66,-21.67 127.74,-21.67 148.22,-21.67 180.77,0 267.53,87.86 303.69,154.05 6.02,10.84 12.05,21.67 20.48,45.74 H 6318.4 c -10.85,-20.46 -33.74,-51.75 -91.59,-51.75 -95.2,0 -114.48,81.84 -119.3,109.52 z m -445.89,126.37 c 7.23,14.44 9.65,19.26 14.46,27.68 30.13,49.35 79.54,54.16 98.82,54.16 38.56,0 75.92,-15.65 97.62,-49.35 7.22,-12.03 9.63,-19.25 14.45,-32.49 z m 988.16,213.02 c -24.11,4.82 -43.39,9.63 -68.69,9.63 -80.74,0 -138.58,-45.73 -159.07,-61.38 -8.44,-6.02 -15.67,-12.03 -22.9,-18.05 l 2.41,72.21 h -213.3 v -581.3 h 220.54 v 261.16 c 1.19,43.33 6.01,61.38 16.86,80.64 9.64,18.05 19.28,25.27 26.51,31.29 33.74,22.87 78.33,22.87 87.97,22.87 31.34,0 54.23,-3.61 109.67,-20.46 z m 483.23,-20.46 c -73.51,24.07 -127.74,39.72 -206.07,39.72 -25.31,0 -102.43,1.2 -166.3,-50.55 -61.45,-50.55 -68.69,-120.35 -68.69,-149.24 0,-110.72 86.77,-145.62 121.71,-157.66 55.44,-19.25 94,-13.23 116.9,-26.47 12.05,-7.22 13.25,-18.06 13.25,-24.07 0,-7.23 -4.82,-24.07 -22.89,-31.3 -15.67,-7.22 -31.33,-6.01 -36.16,-6.01 -67.48,0 -133.76,33.7 -150.63,42.12 -9.64,4.81 -19.28,10.83 -28.92,16.85 l -49.41,-176.92 c 31.33,-15.64 37.35,-18.05 55.43,-24.07 73.51,-25.27 149.43,-28.88 173.53,-28.88 37.36,0 68.69,4.81 81.95,7.22 72.3,13.24 107.25,37.31 131.35,60.17 38.57,36.11 61.46,92.68 61.46,144.43 0,26.47 -6.02,49.34 -9.64,57.77 -2.41,9.62 -13.25,34.9 -34.95,52.95 -36.15,31.29 -95.2,43.33 -139.79,54.16 -38.56,8.42 -69.89,16.85 -69.89,39.71 0,8.43 4.82,20.46 21.69,26.48 12.05,4.82 24.1,4.82 27.72,4.82 59.05,0 119.3,-30.09 132.56,-36.11 z m 328.98,22.87 h -220.53 v -581.3 h 220.53 z m -196.43,90.26 c 31.33,-30.08 69.9,-34.9 84.36,-34.9 63.87,0 118.1,52.96 118.1,117.95 0,64.99 -53.03,117.94 -118.1,117.94 -65.08,0 -118.1,-51.75 -118.1,-116.74 0,-44.53 22.9,-73.41 33.74,-84.25 m 342.24,64.99 V 2342.2 h -81.95 v -146.83 h 81.95 V 1760.9 h 219.32 v 434.47 h 118.1 v 146.83 h -118.1 v 155.25 z m 373.94,-155.25 268.74,-486.22 -184.38,-338.19 h 242.22 l 443.47,824.41 h -236.2 l -147.02,-286.44 -143.4,286.44 h -243.43"
         style="fill:#231f20;fill-opacity:1;fill-rule:nonzero;stroke:none"
         id="path20" />
    </g>
  </g>
</svg>
