<?xml version="1.0" encoding="UTF-8" standalone="no"?>
<!-- Generator: Adobe Illustrator 21.1.0, SVG Export Plug-In . SVG Version: 6.00 Build 0)  -->

<svg
   version="1.1"
   id="Layer_1"
   x="0px"
   y="0px"
   viewBox="0 0 413 79.6"
   style="enable-background:new 0 0 413 79.6;"
   xml:space="preserve"
   sodipodi:docname="ceir_logo.svg"
   inkscape:version="1.1.2 (b8e25be833, 2022-02-05)"
   xmlns:inkscape="http://www.inkscape.org/namespaces/inkscape"
   xmlns:sodipodi="http://sodipodi.sourceforge.net/DTD/sodipodi-0.dtd"
   xmlns="http://www.w3.org/2000/svg"
   xmlns:svg="http://www.w3.org/2000/svg"><defs
   id="defs23" /><sodipodi:namedview
   id="namedview21"
   pagecolor="#ffffff"
   bordercolor="#666666"
   borderopacity="1.0"
   inkscape:pageshadow="2"
   inkscape:pageopacity="0.0"
   inkscape:pagecheckerboard="0"
   showgrid="false"
   inkscape:zoom="2.7336562"
   inkscape:cx="206.5"
   inkscape:cy="39.873339"
   inkscape:window-width="3840"
   inkscape:window-height="2089"
   inkscape:window-x="-8"
   inkscape:window-y="-8"
   inkscape:window-maximized="1"
   inkscape:current-layer="Layer_1" />
<style
   type="text/css"
   id="style2">
	.st0{fill:#FFFFFF;}
	.st1{fill-rule:evenodd;clip-rule:evenodd;fill:#C8382E;}
	.st2{fill-rule:evenodd;clip-rule:evenodd;fill:#FFFFFF;}
</style>
<path
   class="st0"
   d="M263.6,35.7c2.2,0,3.6-1.2,4.4-2.5l-1.7-0.8c-0.5,0.9-1.6,1.6-2.8,1.6c-2.2,0-3.8-1.7-3.8-4c0-2.3,1.6-4,3.8-4  c1.2,0,2.3,0.7,2.8,1.6l1.6-0.9c-0.8-1.3-2.2-2.5-4.4-2.5c-3.3,0-5.8,2.3-5.8,5.7C257.8,33.4,260.3,35.7,263.6,35.7 M273.2,35.7  c1.3,0,2.4-0.4,3.2-1.2l-0.8-1.1c-0.6,0.6-1.5,0.9-2.3,0.9c-1.5,0-2.4-1-2.5-2.2h6.2v-0.4c0-2.5-1.5-4.3-3.9-4.3  c-2.4,0-4.1,1.9-4.1,4.2C269,34.1,270.8,35.7,273.2,35.7z M275.4,30.9h-4.5c0.1-1,0.8-2.1,2.2-2.1C274.7,28.8,275.3,29.9,275.4,30.9  z M285.9,35.5v-5.6c0-1.6-0.9-2.6-2.6-2.6c-1.3,0-2.3,0.6-2.8,1.3v-1.1h-1.7v8h1.7v-5.6c0.4-0.5,1.2-1.1,2.1-1.1  c1,0,1.6,0.4,1.6,1.7v5H285.9z M290.6,35.7c0.8,0,1.3-0.2,1.6-0.5l-0.4-1.3c-0.1,0.1-0.4,0.3-0.8,0.3c-0.5,0-0.8-0.4-0.8-1V29h1.6  v-1.5h-1.6v-2.2h-1.7v2.2h-1.3V29h1.3v4.6C288.5,35,289.2,35.7,290.6,35.7z M297.2,35.7c1.3,0,2.4-0.4,3.2-1.2l-0.8-1.1  c-0.6,0.6-1.5,0.9-2.3,0.9c-1.5,0-2.4-1-2.5-2.2h6.2v-0.4c0-2.5-1.5-4.3-3.9-4.3c-2.4,0-4.1,1.9-4.1,4.2  C293,34.1,294.7,35.7,297.2,35.7z M299.3,30.9h-4.5c0.1-1,0.8-2.1,2.2-2.1C298.6,28.8,299.2,29.9,299.3,30.9z M304.4,35.5v-5.5  c0.3-0.6,1.3-1.1,2.1-1.1c0.2,0,0.4,0,0.5,0v-1.7c-1,0-2,0.6-2.6,1.4v-1.2h-1.7v8H304.4z M314.9,35.5V29h1.6v-1.5h-1.6v-0.4  c0-0.9,0.4-1.3,1.1-1.3c0.4,0,0.7,0.1,0.9,0.3l0.7-1.1c-0.5-0.5-1.2-0.7-1.9-0.7c-1.5,0-2.5,1-2.5,2.8v0.4h-1.3V29h1.3v6.5H314.9z   M321.4,35.7c2.6,0,4.1-1.9,4.1-4.2c0-2.3-1.6-4.2-4.1-4.2c-2.6,0-4.1,1.9-4.1,4.2C317.3,33.8,318.9,35.7,321.4,35.7z M321.4,34.2  c-1.5,0-2.3-1.2-2.3-2.7c0-1.4,0.8-2.7,2.3-2.7c1.5,0,2.3,1.2,2.3,2.7C323.8,32.9,322.9,34.2,321.4,34.2z M329.1,35.5v-5.5  c0.3-0.6,1.3-1.1,2.1-1.1c0.2,0,0.4,0,0.5,0v-1.7c-1,0-2,0.6-2.6,1.4v-1.2h-1.7v8H329.1z M345,35.5v-1.7h-5.6v-3.1h5.5V29h-5.5v-2.8  h5.6v-1.7h-7.6v11.1H345z M354.1,35.5v-5.6c0-1.6-0.9-2.6-2.6-2.6c-1.3,0-2.3,0.6-2.8,1.3v-1.1h-1.7v8h1.7v-5.6  c0.4-0.5,1.2-1.1,2.1-1.1c1,0,1.6,0.4,1.6,1.7v5H354.1z M358.7,35.7c0.8,0,1.3-0.2,1.6-0.5l-0.4-1.3c-0.1,0.1-0.4,0.3-0.8,0.3  c-0.5,0-0.8-0.4-0.8-1V29h1.6v-1.5h-1.6v-2.2h-1.7v2.2h-1.3V29h1.3v4.6C356.7,35,357.4,35.7,358.7,35.7z M365.3,35.7  c1.3,0,2.4-0.4,3.2-1.2l-0.8-1.1c-0.6,0.6-1.5,0.9-2.3,0.9c-1.5,0-2.4-1-2.5-2.2h6.2v-0.4c0-2.5-1.5-4.3-3.9-4.3  c-2.4,0-4.1,1.9-4.1,4.2C361.1,34.1,362.9,35.7,365.3,35.7z M367.4,30.9h-4.5c0.1-1,0.8-2.1,2.2-2.1  C366.7,28.8,367.4,29.9,367.4,30.9z M372.6,35.5v-5.5c0.3-0.6,1.3-1.1,2.1-1.1c0.2,0,0.4,0,0.5,0v-1.7c-1,0-2,0.6-2.6,1.4v-1.2h-1.7  v8H372.6z M380.9,35.7c2.1,0,3.5-1.6,3.5-4.2c0-2.6-1.5-4.2-3.5-4.2c-1,0-2,0.5-2.6,1.3v-1.1h-1.7v11.1h1.7v-4.2  C379,35.3,379.9,35.7,380.9,35.7z M380.4,34.2c-0.8,0-1.7-0.5-2.1-1.1v-3.2c0.4-0.6,1.2-1.1,2.1-1.1c1.4,0,2.3,1.1,2.3,2.7  S381.8,34.2,380.4,34.2z M387.9,35.5v-5.5c0.3-0.6,1.3-1.1,2.1-1.1c0.2,0,0.4,0,0.5,0v-1.7c-1,0-2,0.6-2.6,1.4v-1.2h-1.7v8H387.9z   M392.8,26.5c0.6,0,1.1-0.5,1.1-1.1c0-0.6-0.5-1.1-1.1-1.1c-0.6,0-1.1,0.5-1.1,1.1C391.7,26.1,392.2,26.5,392.8,26.5z M393.7,35.5  v-8h-1.7v8H393.7z M398.7,35.7c2.2,0,3.3-1.1,3.3-2.5c0-3.2-4.8-2.1-4.8-3.5c0-0.6,0.6-1,1.5-1c1,0,1.9,0.4,2.4,1l0.7-1.2  c-0.7-0.6-1.7-1.1-3.1-1.1c-2,0-3.1,1.1-3.1,2.4c0,3.1,4.8,2,4.8,3.5c0,0.6-0.5,1.1-1.6,1.1c-1,0-2.1-0.5-2.7-1.1l-0.8,1.2  C396.1,35.3,397.3,35.7,398.7,35.7z M407.4,35.7c1.3,0,2.4-0.4,3.2-1.2l-0.8-1.1c-0.6,0.6-1.5,0.9-2.3,0.9c-1.5,0-2.4-1-2.5-2.2h6.2  v-0.4c0-2.5-1.5-4.3-3.9-4.3c-2.4,0-4.1,1.9-4.1,4.2C403.3,34.1,405,35.7,407.4,35.7z M409.6,30.9h-4.5c0.1-1,0.8-2.1,2.2-2.1  C408.9,28.8,409.5,29.9,409.6,30.9z M260.2,52.1V41h-1.9v11.1H260.2z M269.7,52.1v-5.6c0-1.6-0.9-2.6-2.6-2.6  c-1.3,0-2.3,0.6-2.8,1.3v-1.1h-1.7v8h1.7v-5.6c0.4-0.5,1.2-1.1,2.1-1.1c1,0,1.6,0.4,1.6,1.7v5H269.7z M274.1,52.1v-6.5h1.6v-1.5  h-1.6v-0.4c0-0.9,0.4-1.3,1.1-1.3c0.4,0,0.7,0.1,0.9,0.3l0.7-1.1c-0.5-0.5-1.2-0.7-1.9-0.7c-1.5,0-2.5,1-2.5,2.8v0.4H271v1.5h1.3  v6.5H274.1z M280.7,52.3c2.6,0,4.1-1.9,4.1-4.2c0-2.3-1.6-4.2-4.1-4.2c-2.6,0-4.1,1.9-4.1,4.2C276.6,50.4,278.1,52.3,280.7,52.3z   M280.7,50.8c-1.5,0-2.3-1.2-2.3-2.7c0-1.4,0.8-2.7,2.3-2.7c1.5,0,2.3,1.2,2.3,2.7C283,49.5,282.2,50.8,280.7,50.8z M288.3,52.1  v-5.5c0.3-0.6,1.3-1.1,2.1-1.1c0.2,0,0.4,0,0.5,0v-1.7c-1,0-2,0.6-2.6,1.4v-1.2h-1.7v8H288.3z M303.9,52.1v-5.8  c0-1.6-0.8-2.4-2.3-2.4c-1.2,0-2.3,0.7-2.7,1.5c-0.3-0.9-1-1.5-2.2-1.5c-1.2,0-2.3,0.8-2.6,1.3v-1.1h-1.7v8h1.7v-5.6  c0.4-0.5,1.1-1.1,1.9-1.1c0.9,0,1.3,0.6,1.3,1.4v5.2h1.7v-5.6c0.3-0.5,1.1-1.1,1.9-1.1c0.9,0,1.3,0.6,1.3,1.4v5.2H303.9z   M312.8,52.1v-5.3c0-2.1-1.6-2.9-3.3-2.9c-1.3,0-2.4,0.4-3.4,1.3l0.7,1.2c0.7-0.7,1.5-1,2.4-1c1.1,0,1.9,0.6,1.9,1.5v1.2  c-0.6-0.7-1.5-1-2.6-1c-1.3,0-2.8,0.8-2.8,2.6c0,1.8,1.5,2.7,2.8,2.7c1.1,0,2-0.4,2.6-1.1v0.9H312.8z M309.1,51.1  c-1,0-1.7-0.6-1.7-1.4c0-0.9,0.7-1.4,1.7-1.4c0.7,0,1.5,0.3,1.9,0.8v1.2C310.6,50.8,309.9,51.1,309.1,51.1z M317.4,52.3  c0.8,0,1.3-0.2,1.6-0.5l-0.4-1.3c-0.1,0.1-0.4,0.3-0.8,0.3c-0.5,0-0.8-0.4-0.8-1v-4.2h1.6v-1.5h-1.6v-2.2h-1.7v2.2h-1.3v1.5h1.3v4.6  C315.4,51.6,316.1,52.3,317.4,52.3z M321.2,43.1c0.6,0,1.1-0.5,1.1-1.1c0-0.6-0.5-1.1-1.1-1.1c-0.6,0-1.1,0.5-1.1,1.1  C320.1,42.6,320.6,43.1,321.2,43.1z M322,52.1v-8h-1.7v8H322z M327.9,52.3c2.6,0,4.1-1.9,4.1-4.2c0-2.3-1.6-4.2-4.1-4.2  c-2.6,0-4.1,1.9-4.1,4.2C323.8,50.4,325.4,52.3,327.9,52.3z M327.9,50.8c-1.5,0-2.3-1.2-2.3-2.7c0-1.4,0.8-2.7,2.3-2.7  c1.5,0,2.3,1.2,2.3,2.7C330.2,49.5,329.4,50.8,327.9,50.8z M341,52.1v-5.6c0-1.6-0.9-2.6-2.6-2.6c-1.3,0-2.3,0.6-2.8,1.3v-1.1h-1.7  v8h1.7v-5.6c0.4-0.5,1.2-1.1,2.1-1.1c1,0,1.6,0.4,1.6,1.7v5H341z M355.4,52.1l-2.7-4.3c1.3-0.2,2.6-1.3,2.6-3.2  c0-2.1-1.4-3.5-3.6-3.5h-4.9v11.1h1.9V48h1.9l2.4,4.1H355.4z M351.4,46.3h-2.7v-3.5h2.7c1.1,0,1.9,0.7,1.9,1.7  C353.3,45.6,352.5,46.3,351.4,46.3z M360.4,52.3c1.3,0,2.4-0.4,3.2-1.2l-0.8-1.1c-0.6,0.6-1.5,0.9-2.3,0.9c-1.5,0-2.4-1-2.5-2.2h6.2  v-0.4c0-2.5-1.5-4.3-3.9-4.3c-2.4,0-4.1,1.9-4.1,4.2C356.2,50.6,358,52.3,360.4,52.3z M362.5,47.4H358c0.1-1,0.8-2.1,2.2-2.1  C361.8,45.3,362.5,46.5,362.5,47.4z M368.6,52.3c2.2,0,3.3-1.1,3.3-2.5c0-3.2-4.8-2.1-4.8-3.5c0-0.6,0.6-1,1.5-1c1,0,1.9,0.4,2.4,1  l0.7-1.2c-0.7-0.6-1.7-1.1-3.1-1.1c-2,0-3.1,1.1-3.1,2.4c0,3.1,4.8,2,4.8,3.5c0,0.6-0.5,1.1-1.6,1.1c-1,0-2.1-0.5-2.7-1.1l-0.8,1.2  C366,51.8,367.3,52.3,368.6,52.3z M377.4,52.3c1.3,0,2.4-0.4,3.2-1.2l-0.8-1.1c-0.6,0.6-1.5,0.9-2.3,0.9c-1.5,0-2.4-1-2.5-2.2h6.2  v-0.4c0-2.5-1.5-4.3-3.9-4.3c-2.4,0-4.1,1.9-4.1,4.2C373.2,50.6,375,52.3,377.4,52.3z M379.5,47.4H375c0.1-1,0.8-2.1,2.2-2.1  C378.9,45.3,379.5,46.5,379.5,47.4z M389.6,52.1v-5.3c0-2.1-1.6-2.9-3.3-2.9c-1.3,0-2.4,0.4-3.4,1.3l0.7,1.2c0.7-0.7,1.5-1,2.4-1  c1.1,0,1.9,0.6,1.9,1.5v1.2c-0.6-0.7-1.5-1-2.6-1c-1.3,0-2.8,0.8-2.8,2.6c0,1.8,1.5,2.7,2.8,2.7c1.1,0,2-0.4,2.6-1.1v0.9H389.6z   M385.9,51.1c-1,0-1.7-0.6-1.7-1.4c0-0.9,0.7-1.4,1.7-1.4c0.7,0,1.5,0.3,1.9,0.8v1.2C387.4,50.8,386.7,51.1,385.9,51.1z M393.6,52.1  v-5.5c0.3-0.6,1.3-1.1,2.1-1.1c0.2,0,0.4,0,0.5,0v-1.7c-1,0-2,0.6-2.6,1.4v-1.2h-1.7v8H393.6z M401.2,52.3c1.6,0,2.5-0.7,3.1-1.4  l-1.1-1.1c-0.4,0.6-1.1,1-1.8,1c-1.4,0-2.4-1.1-2.4-2.7c0-1.6,1-2.7,2.4-2.7c0.8,0,1.4,0.3,1.8,0.9l1.1-1c-0.6-0.8-1.5-1.4-3.1-1.4  c-2.4,0-4.1,1.8-4.1,4.2S398.8,52.3,401.2,52.3z M413,52.1v-5.7c0-1.6-0.9-2.5-2.6-2.5c-1.3,0-2.3,0.6-2.8,1.3V41h-1.7v11.1h1.7  v-5.6c0.4-0.5,1.2-1.1,2.1-1.1c1,0,1.6,0.4,1.6,1.6v5H413z"
   id="path4"
   style="fill:#000000" />
<path
   class="st0"
   d="M137.7,25c1.1,1.1,1.1,2.8,0,3.9c-1.1,1.1-2.8,1.1-3.9,0c-3-3-7-4.5-11-4.5c-4,0-7.9,1.5-11,4.5  c-3,3-4.5,7-4.5,11c0,4,1.5,7.9,4.5,11c3,3,7,4.5,11,4.5c4,0,7.9-1.5,11-4.5c1.1-1.1,2.8-1.1,3.9,0c1.1,1.1,1.1,2.8,0,3.9  c-4.1,4.1-9.5,6.2-14.9,6.2c-5.4,0-10.8-2.1-14.9-6.2s-6.2-9.5-6.2-14.9c0-5.4,2.1-10.8,6.2-14.9c4.1-4.1,9.5-6.2,14.9-6.2  C128.2,18.8,133.6,20.9,137.7,25"
   id="path6"
   style="fill:#000000" />
<path
   class="st0"
   d="M185,21.6c0-1.5,1.2-2.8,2.8-2.8c1.5,0,2.8,1.2,2.8,2.8v36.5c0,1.5-1.2,2.8-2.8,2.8c-1.5,0-2.8-1.2-2.8-2.8  V21.6z"
   id="path8"
   style="fill:#000000" />
<path
   class="st0"
   d="M171.1,18.8c1.5,0,2.8,1.2,2.8,2.8c0,1.5-1.2,2.8-2.8,2.8h-9.7c-1.9,0-3.6,0.8-4.9,2c-1.3,1.3-2,3-2,4.9v5.8  h16.6c1.5,0,2.8,1.2,2.8,2.8c0,1.5-1.2,2.8-2.8,2.8h-16.6v5.8c0,1.9,0.8,3.6,2,4.9c1.3,1.3,3,2,4.9,2h9.7c1.5,0,2.8,1.2,2.8,2.8  c0,1.5-1.2,2.8-2.8,2.8h-9.7c-3.4,0-6.6-1.4-8.8-3.7c-2.3-2.3-3.7-5.4-3.7-8.8c0-5.7,0-11.4,0-17.1c0-3.4,1.4-6.6,3.7-8.8  c2.3-2.3,5.4-3.7,8.8-3.7H171.1z"
   id="path10"
   style="fill:#000000" />
<path
   class="st0"
   d="M215.4,37h6.9c1.8,0,3.4-0.7,4.5-1.9c1.2-1.2,1.9-2.7,1.9-4.5c0-1.8-0.7-3.4-1.9-4.5c-1.2-1.2-2.7-1.9-4.5-1.9  h-15.2v5.6c0,9.4,0,18.8,0,28.2c0,1.5-1.2,2.8-2.8,2.8c-1.5,0-2.8-1.2-2.8-2.8V21.5c0-1.5,1.2-2.8,2.8-2.8h18c3.3,0,6.3,1.3,8.4,3.5  c2.2,2.2,3.5,5.1,3.5,8.4c0,3.3-1.3,6.3-3.5,8.4c-1.2,1.2-2.5,2.1-4.1,2.7l8.6,15c0.8,1.3,0.3,3-1,3.8c-1.3,0.8-3,0.3-3.8-1  l-9.8-16.9h-5.3c-1.5,0-2.8-1.2-2.8-2.8C212.7,38.3,213.9,37,215.4,37"
   id="path12"
   style="fill:#000000" />
<path
   class="st1"
   d="M60,59.8c-5.2,5.2-12.3,8.4-20.2,8.4c-3.1,0-5.7,2.5-5.7,5.7s2.5,5.7,5.7,5.7c22,0,39.8-17.8,39.8-39.8  C79.6,17.8,61.8,0,39.8,0c-3.1,0-5.7,2.5-5.7,5.7s2.5,5.7,5.7,5.7c7.9,0,15.1,3.2,20.2,8.4c2.1,2.2,2.1,5.8-0.1,7.9  c-2.2,2.2-5.8,2.2-8,0c-3.1-3.1-7.4-5-12.1-5c-9.4,0-17.1,7.6-17.1,17.1c0,9.4,7.6,17.1,17.1,17.1c4.7,0,9-1.9,12.1-5  c2.2-2.2,5.8-2.2,8,0C62.1,54.1,62.2,57.6,60,59.8"
   id="path14" />
<path
   class="st1"
   d="M19.7,59.9c-5.1-5.1-8.3-12.3-8.3-20.1c0-7.9,3.2-15,8.3-20.1c2.2-2.2,2.2-5.8,0-8c-2.2-2.2-5.8-2.2-8,0  C4.5,18.9,0,28.8,0,39.8c0,11,4.5,21,11.7,28.2c2.2,2.2,5.8,2.2,8,0C21.9,65.8,21.9,62.2,19.7,59.9"
   id="path16" />
<rect
   x="245.3"
   y="18.8"
   class="st2"
   width="1.4"
   height="42.1"
   id="rect18"
   style="fill:#000000" />
</svg>
