<?xml version="1.0" encoding="UTF-8" standalone="no"?>
<!-- Generator: Adobe Illustrator 21.1.0, SVG Export Plug-In . SVG Version: 6.00 Build 0)  -->

<svg
   version="1.0"
   id="Ebene_1"
   x="0px"
   y="0px"
   viewBox="0 0 280.6 44.5"
   enable-background="new 0 0 280.6 44.5"
   xml:space="preserve"
   sodipodi:docname="uni_koblenz_logo.svg"
   inkscape:version="1.1.2 (b8e25be833, 2022-02-05)"
   xmlns:inkscape="http://www.inkscape.org/namespaces/inkscape"
   xmlns:sodipodi="http://sodipodi.sourceforge.net/DTD/sodipodi-0.dtd"
   xmlns="http://www.w3.org/2000/svg"
   xmlns:svg="http://www.w3.org/2000/svg"><defs
   id="defs67" /><sodipodi:namedview
   id="namedview65"
   pagecolor="#ffffff"
   bordercolor="#666666"
   borderopacity="1.0"
   inkscape:pageshadow="2"
   inkscape:pageopacity="0.0"
   inkscape:pagecheckerboard="0"
   showgrid="false"
   inkscape:zoom="4.0235209"
   inkscape:cx="140.3"
   inkscape:cy="22.368468"
   inkscape:window-width="3840"
   inkscape:window-height="2089"
   inkscape:window-x="-8"
   inkscape:window-y="-8"
   inkscape:window-maximized="1"
   inkscape:current-layer="Ebene_1" />
<path
   fill="none"
   stroke="#000000"
   stroke-width="0.1705"
   stroke-miterlimit="3.8637"
   d="M52.2,1.4h-16l-8.9,23.4  c-1.7,4.5-3.6,6.4-6.6,6.4c-2.4,0-3.5-1.4-3-3.7c0.2-0.7,0.6-1.9,1.1-3.2l8.7-22.8H11.5l-9,23.8c-0.4,1.1-0.7,2-1,3.3  c-1.2,4.8-0.6,8.2,2.2,10.8c3.1,2.9,7.9,4.5,14.2,4.5c6.2,0,11.4-1.5,15.9-4.8c4.7-3.3,6.5-6.1,9.7-14.7L52.2,1.4L52.2,1.4z"
   id="path2" />
<path
   fill="#FFFFFF"
   stroke="#0B2B77"
   stroke-width="1.6939"
   stroke-miterlimit="3.8637"
   d="M52.2,1.4h-16l-8.9,23.4  c-1.7,4.5-3.6,6.4-6.6,6.4c-2.4,0-3.5-1.4-3-3.7c0.2-0.7,0.6-1.9,1.1-3.2l8.7-22.8H11.5l-9,23.8c-0.4,1.1-0.7,2-1,3.3  c-1.2,4.8-0.6,8.2,2.2,10.8c3.1,2.9,7.9,4.5,14.2,4.5c6.2,0,11.4-1.5,15.9-4.8c4.7-3.3,6.5-6.1,9.7-14.7L52.2,1.4L52.2,1.4z"
   id="path4" />
<path
   fill="#0B2B77"
   d="M9.7,19.2h15.7l-0.8,2.4H8.8L9.7,19.2L9.7,19.2z M11.3,14.4h15.7l-0.8,2.4H10.5L11.3,14.4L11.3,14.4z   M12.9,9.5h15.7l-0.8,2.4H12.1L12.9,9.5L12.9,9.5z M14.5,4.6h15.7l-0.8,2.5H13.7L14.5,4.6L14.5,4.6z"
   id="path6" />
<path
   fill="#0B2B77"
   d="M34,19.2h15.7l-0.8,2.4H33.2L34,19.2L34,19.2z M35.7,14.4h15.7l-0.8,2.4H34.8L35.7,14.4L35.7,14.4z   M37.3,9.5h15.7l-0.8,2.4H36.5L37.3,9.5L37.3,9.5z M38.9,4.6h15.7l-0.8,2.5H38.1L38.9,4.6L38.9,4.6z"
   id="path8" />
<polygon
   fill="#FFFFFF"
   points="71.3,32.6 71.3,24.9 69.3,24.9 69.3,43 71.3,43 71.3,35.2 71.8,34.7 79.2,43 82,43 73.2,33.3   81.7,24.9 79,24.9 71.3,32.6 "
   id="polygon10"
   style="fill:#000000" />
<path
   fill-rule="evenodd"
   clip-rule="evenodd"
   fill="#FFFFFF"
   d="M91,24.6c-5.2,0-9.4,4.2-9.4,9.4c0,5.2,4.3,9.3,9.4,9.3  c5.2,0,9.4-4.1,9.4-9.3C100.4,28.8,96.2,24.6,91,24.6L91,24.6z M91,26.4c4.2,0,7.4,3.4,7.4,7.5c0,4.1-3.3,7.5-7.4,7.5  c-4.1,0-7.4-3.4-7.4-7.5C83.6,29.8,86.9,26.4,91,26.4L91,26.4z"
   id="path12"
   style="fill:#000000" />
<path
   fill-rule="evenodd"
   clip-rule="evenodd"
   fill="#FFFFFF"
   d="M105.2,34.6h1.8c2.2,0,4.9,0.4,4.9,3.2c0,2.8-2.4,3.3-4.6,3.3h-2  V34.6L105.2,34.6z M103.2,43h4.2c3.6,0,6.5-1.4,6.5-5c0-2.2-1.3-4.1-3.4-4.6c1.2-0.8,1.8-2.1,1.8-3.5c0-3.7-2.8-4.9-6-4.9h-3V43  L103.2,43z M105.2,26.7h0.8c2.5,0,4.2,0.3,4.2,3c0,2.8-1.9,3.1-4.2,3.1h-0.8V26.7L105.2,26.7z"
   id="path14"
   style="fill:#000000" />
<polygon
   fill="#FFFFFF"
   points="118.8,24.9 116.8,24.9 116.8,43 123.8,43 123.8,41.1 118.8,41.1 118.8,24.9 "
   id="polygon16"
   style="fill:#000000" />
<polygon
   fill="#FFFFFF"
   points="125.8,43 135.2,43 135.2,41.1 127.8,41.1 127.8,34 135,34 135,32.1 127.8,32.1 127.8,26.7   135.2,26.7 135.2,24.9 125.8,24.9 125.8,43 "
   id="polygon18"
   style="fill:#000000" />
<polygon
   fill="#FFFFFF"
   points="138.7,43 140.7,43 140.7,29 154.9,43.8 154.9,24.9 152.8,24.9 152.8,38.9 138.7,24.1 138.7,43 "
   id="polygon20"
   style="fill:#000000" />
<polygon
   fill="#FFFFFF"
   points="160.5,41.1 170.4,24.9 158.4,24.9 158.4,26.7 167,26.7 157.1,43 170.1,43 170.1,41.1 160.5,41.1 "
   id="polygon22"
   style="fill:#000000" />
<path
   fill="#FFFFFF"
   d="M179.4,32.7c-0.7,0-1.3,0.6-1.3,1.3c0,0.7,0.6,1.4,1.3,1.4c0.7,0,1.3-0.6,1.3-1.4  C180.7,33.3,180.1,32.7,179.4,32.7L179.4,32.7z"
   id="path24"
   style="fill:#000000" />
<polygon
   fill="#FFFFFF"
   points="191.7,24.9 189.7,24.9 189.7,43 196.7,43 196.7,41.1 191.7,41.1 191.7,24.9 "
   id="polygon26"
   style="fill:#000000" />
<path
   fill-rule="evenodd"
   clip-rule="evenodd"
   fill="#FFFFFF"
   d="M209.6,37.8l2.1,5.1h2.2l-8.1-19l-8.4,19h2.2l2.2-5.1H209.6  L209.6,37.8z M208.8,36h-6.1l3.1-7.2L208.8,36L208.8,36z"
   id="path28"
   style="fill:#000000" />
<polygon
   fill="#FFFFFF"
   points="216,43 218.1,43 218.1,29 232.2,43.8 232.2,24.9 230.2,24.9 230.2,38.9 216,24.1 216,43 "
   id="polygon30"
   style="fill:#000000" />
<path
   fill-rule="evenodd"
   clip-rule="evenodd"
   fill="#FFFFFF"
   d="M235.9,43h3.4c2.8,0,5-0.4,7.2-2.3c2-1.8,3-4.1,3-6.7  c0-2.7-0.9-5.1-3-6.9c-2.1-1.8-4.3-2.2-7.1-2.2h-3.4V43L235.9,43z M238,41.1V26.7h1.5c2.1,0,4,0.3,5.6,1.8c1.6,1.4,2.4,3.4,2.4,5.4  c0,2-0.8,3.9-2.3,5.3c-1.7,1.6-3.5,1.9-5.7,1.9H238L238,41.1z"
   id="path32"
   style="fill:#000000" />
<path
   fill-rule="evenodd"
   clip-rule="evenodd"
   fill="#FFFFFF"
   d="M262.2,37.8l2.1,5.1h2.2l-8.1-19L250,43h2.2l2.2-5.1H262.2  L262.2,37.8z M261.4,36h-6.1l3.1-7.2L261.4,36L261.4,36z"
   id="path34"
   style="fill:#000000" />
<path
   fill="#FFFFFF"
   d="M269.7,24.9h-2v11.3c0,2.1,0.2,3.7,1.8,5.2c1.2,1.2,3,1.8,4.7,1.8c1.8,0,3.6-0.7,4.9-2.1  c1.4-1.5,1.6-3,1.6-5V24.9h-2v10.8c0,1.4,0.1,3-0.9,4.2c-0.8,1-2.3,1.6-3.6,1.6c-1.3,0-2.9-0.6-3.6-1.7c-0.8-1.2-0.8-2.7-0.8-4V24.9  L269.7,24.9z"
   id="path36"
   style="fill:#000000" />
<path
   fill="#FFFFFF"
   d="M71.2,0.9h-2v11.3c0,2.1,0.2,3.7,1.8,5.2c1.2,1.2,3,1.8,4.7,1.8c1.8,0,3.6-0.7,4.9-2.1c1.4-1.5,1.6-3,1.6-5  V0.9h-2v10.8c0,1.4,0.1,3-0.9,4.2c-0.8,1-2.3,1.6-3.6,1.6c-1.3,0-2.9-0.6-3.6-1.7c-0.8-1.2-0.8-2.7-0.8-4V0.9L71.2,0.9z"
   id="path38"
   style="fill:#000000" />
<polygon
   fill="#FFFFFF"
   points="93.4,19 95.4,19 95.4,5 109.5,19.8 109.5,0.9 107.5,0.9 107.5,14.9 93.4,0.1 93.4,19 "
   id="polygon40"
   style="fill:#000000" />
<polygon
   fill="#FFFFFF"
   points="122.9,0.9 120.9,0.9 120.9,19 122.9,19 122.9,0.9 "
   id="polygon42"
   style="fill:#000000" />
<polygon
   fill="#FFFFFF"
   points="134.6,0.9 132.4,0.9 139.8,20 147.1,0.9 144.9,0.9 139.8,14.7 134.6,0.9 "
   id="polygon44"
   style="fill:#000000" />
<polygon
   fill="#FFFFFF"
   points="156.7,19 166,19 166,17.1 158.7,17.1 158.7,10 165.8,10 165.8,8.1 158.7,8.1 158.7,2.7 166,2.7   166,0.9 156.7,0.9 156.7,19 "
   id="polygon46"
   style="fill:#000000" />
<path
   fill-rule="evenodd"
   clip-rule="evenodd"
   fill="#FFFFFF"
   d="M179,2.7h0.6c2.4,0,4.6,0.3,4.6,3.3c0,2.8-2.3,3.2-4.6,3.2H179V2.7  L179,2.7z M179,11h0.5L185,19h2.5l-5.8-8.1c2.8-0.2,4.5-2.2,4.5-5c0-4.1-3.2-5-6.6-5H177V19h2V11L179,11z"
   id="path48"
   style="fill:#000000" />
<path
   fill="#FFFFFF"
   d="M207.4,3.4c-1-1.8-2.7-2.8-4.7-2.8c-2.7,0-5.1,1.8-5.1,4.6c0,2.6,1.8,3.7,3.9,4.6l1.1,0.5  c1.7,0.8,3.3,1.5,3.3,3.6c0,2-1.8,3.5-3.7,3.5c-1.9,0-3.4-1.5-3.6-3.4l-2,0.6c0.6,2.8,2.7,4.7,5.6,4.7c3.1,0,5.7-2.4,5.7-5.6  c0-2.9-2-4.1-4.3-5.1l-1.2-0.5c-1.2-0.6-2.8-1.3-2.8-2.8c0-1.7,1.4-2.8,3-2.8c1.5,0,2.4,0.7,3.1,2L207.4,3.4L207.4,3.4z"
   id="path50"
   style="fill:#000000" />
<polygon
   fill="#FFFFFF"
   points="220.6,0.9 218.6,0.9 218.6,19 220.6,19 220.6,0.9 "
   id="polygon52"
   style="fill:#000000" />
<polygon
   fill="#FFFFFF"
   points="236.6,2.7 241.1,2.7 241.1,0.9 230.3,0.9 230.3,2.7 234.6,2.7 234.6,19 236.6,19 236.6,2.7 "
   id="polygon54"
   style="fill:#000000" />
<path
   fill-rule="evenodd"
   clip-rule="evenodd"
   fill="#FFFFFF"
   d="M259.2,13.8l2.1,5.1h2.2l-8.1-19l-8.4,19h2.2l2.2-5.1H259.2  L259.2,13.8z M258.4,12h-6.1l3.1-7.2L258.4,12L258.4,12z"
   id="path56"
   style="fill:#000000" />
<polygon
   fill="#FFFFFF"
   points="276,2.7 280.4,2.7 280.4,0.9 269.6,0.9 269.6,2.7 274,2.7 274,19 276,19 276,2.7 "
   id="polygon58"
   style="fill:#000000" />
<path
   fill="#FFFFFF"
   d="M250.5,0.8c-0.7,0-1.3,0.6-1.3,1.3c0,0.7,0.6,1.4,1.3,1.4c0.7,0,1.3-0.6,1.3-1.4  C251.9,1.4,251.3,0.8,250.5,0.8L250.5,0.8z"
   id="path60"
   style="fill:#000000" />
<path
   fill="#FFFFFF"
   d="M260.3,0.8c-0.7,0-1.3,0.6-1.3,1.3c0,0.7,0.6,1.4,1.3,1.4c0.7,0,1.3-0.6,1.3-1.4  C261.6,1.4,261,0.8,260.3,0.8L260.3,0.8z"
   id="path62"
   style="fill:#000000" />
</svg>
